<svg width="126" height="126" viewBox="0 0 126 126" fill="none" xmlns="http://www.w3.org/2000/svg">
<circle cx="63" cy="63" r="62.5" fill="#FBFBFB" stroke="#777777"/>
<path fill-rule="evenodd" clip-rule="evenodd" d="M65.6525 24.625C65.6525 23.9288 65.3644 23.2611 64.8516 22.7688C64.3388 22.2766 63.6433 22 62.9181 22C62.1929 22 61.4974 22.2766 60.9846 22.7688C60.4718 23.2611 60.1838 23.9288 60.1838 24.625V30.75H52.9869C51.7061 30.7495 50.4548 31.119 49.3957 31.8105L43.2161 35.8495C43.0643 35.9481 42.8852 36.0006 42.702 36H27.7468C27.0216 36 26.3261 36.2766 25.8133 36.7688C25.3005 37.2611 25.0124 37.9288 25.0124 38.625C25.0124 39.3212 25.3005 39.9889 25.8133 40.4812C26.3261 40.9734 27.0216 41.25 27.7468 41.25H33.4963L21.2207 68.13C20.9889 68.6546 20.9381 69.2366 21.0759 69.7909C21.2137 70.3451 21.5327 70.8425 21.9864 71.21C22.278 71.434 22.5733 71.6475 23.1129 71.9835C23.791 72.407 24.7608 72.9565 26.0004 73.499C28.4796 74.5875 32.0598 75.669 36.4858 75.669C40.1026 75.6756 43.6786 74.9356 46.9713 73.499C48.2108 72.9565 49.1806 72.407 49.8588 71.9835C50.4056 71.644 50.6973 71.4305 50.989 71.203C51.4462 70.8396 51.7679 70.3432 51.9053 69.7888C52.0428 69.2345 51.9886 68.6522 51.7509 68.13L39.4718 41.25H42.702C43.9817 41.25 45.2322 40.879 46.2895 40.1895L52.4728 36.1505C52.6235 36.0525 52.8013 36.0001 52.9832 36H60.1838V86.75H43.8249C43.0997 86.75 42.4042 87.0266 41.8914 87.5188C41.3786 88.0111 41.0905 88.6788 41.0905 89.375C41.0905 90.0712 41.3786 90.7389 41.8914 91.2312C42.4042 91.7234 43.0997 92 43.8249 92H82.0114C82.7366 92 83.4321 91.7234 83.9449 91.2312C84.4577 90.7389 84.7457 90.0712 84.7457 89.375C84.7457 88.6788 84.4577 88.0111 83.9449 87.5188C83.4321 87.0266 82.7366 86.75 82.0114 86.75H65.6525V36H72.8494C73.0317 36 73.214 36.0525 73.3598 36.1505L79.5468 40.1895C80.6041 40.879 81.8546 41.25 83.1343 41.25H86.3645L74.0853 68.13C73.8398 68.6675 73.789 69.2684 73.941 69.8369C74.093 70.4053 74.439 70.9085 74.9239 71.266C74.9676 71.2975 74.9239 71.266 74.9312 71.266C75.2928 71.5275 75.6702 71.7682 76.0614 71.987C76.7358 72.379 77.702 72.883 78.9416 73.387C82.2382 74.7099 85.7774 75.3858 89.3504 75.375C92.925 75.3852 96.4654 74.708 99.7629 73.3835C100.995 72.883 101.965 72.379 102.643 71.987C103.033 71.7661 103.41 71.5254 103.773 71.266C104.258 70.9085 104.604 70.4053 104.756 69.8369C104.908 69.2684 104.857 68.6675 104.612 68.13L92.34 41.25H98.0931C98.8183 41.25 99.5138 40.9734 100.027 40.4812C100.539 39.9889 100.828 39.3212 100.828 38.625C100.828 37.9288 100.539 37.2611 100.027 36.7688C99.5138 36.2766 98.8183 36 98.0931 36H83.1379C82.956 35.9999 82.7782 35.9475 82.6275 35.8495L76.4405 31.8105C75.3825 31.1196 74.1326 30.7502 72.853 30.75H65.6525V24.625ZM27.1634 68.193C30.0331 69.6589 33.2352 70.4223 36.4858 70.4155C39.7365 70.4223 42.9386 69.6589 45.8082 68.193L36.4858 47.788L27.1634 68.193ZM80.0645 68.109C80.3634 68.249 80.6989 68.3995 81.0671 68.55C82.9994 69.3305 85.8249 70.125 89.3504 70.125C92.5645 70.1337 95.739 69.4446 98.6364 68.109L89.3504 47.7845L80.0645 68.109Z" fill="#701A37"/>
</svg>
